<svg width="55" height="50" viewBox="0 0 55 50" fill="none" xmlns="http://www.w3.org/2000/svg">
<path d="M50.3239 1.5625H4.26474C3.5861 1.5625 2.93525 1.80943 2.45537 2.24897C1.97549 2.68851 1.7059 3.28465 1.7059 3.90625V46.0938C1.7059 46.7154 1.97549 47.3115 2.45537 47.751C2.93525 48.1906 3.5861 48.4375 4.26474 48.4375H50.3239C51.0025 48.4375 51.6534 48.1906 52.1333 47.751C52.6131 47.3115 52.8827 46.7154 52.8827 46.0938V3.90625C52.8827 3.28465 52.6131 2.68851 52.1333 2.24897C51.6534 1.80943 51.0025 1.5625 50.3239 1.5625ZM4.26474 3.125H50.3239C50.5501 3.125 50.767 3.20731 50.927 3.35382C51.087 3.50034 51.1768 3.69905 51.1768 3.90625V7.8125H3.4118V3.90625C3.4118 3.69905 3.50166 3.50034 3.66162 3.35382C3.82158 3.20731 4.03853 3.125 4.26474 3.125ZM50.3239 46.875H4.26474C4.03853 46.875 3.82158 46.7927 3.66162 46.6462C3.50166 46.4997 3.4118 46.3009 3.4118 46.0938V9.375H51.1768V46.0938C51.1768 46.3009 51.087 46.4997 50.927 46.6462C50.767 46.7927 50.5501 46.875 50.3239 46.875Z" fill="#3EA9D2"/>
<path d="M5.97062 6.25H6.82357C7.04979 6.25 7.26674 6.16769 7.42669 6.02118C7.58665 5.87466 7.67652 5.67595 7.67652 5.46875C7.67652 5.26155 7.58665 5.06284 7.42669 4.91632C7.26674 4.76981 7.04979 4.6875 6.82357 4.6875H5.97062C5.74441 4.6875 5.52746 4.76981 5.3675 4.91632C5.20754 5.06284 5.11768 5.26155 5.11768 5.46875C5.11768 5.67595 5.20754 5.87466 5.3675 6.02118C5.52746 6.16769 5.74441 6.25 5.97062 6.25Z" fill="#3EA9D2"/>
<path d="M10.2354 6.25H11.0883C11.3145 6.25 11.5315 6.16769 11.6914 6.02118C11.8514 5.87466 11.9413 5.67595 11.9413 5.46875C11.9413 5.26155 11.8514 5.06284 11.6914 4.91632C11.5315 4.76981 11.3145 4.6875 11.0883 4.6875H10.2354C10.0091 4.6875 9.7922 4.76981 9.63224 4.91632C9.47228 5.06284 9.38242 5.26155 9.38242 5.46875C9.38242 5.67595 9.47228 5.87466 9.63224 6.02118C9.7922 6.16769 10.0091 6.25 10.2354 6.25Z" fill="#3EA9D2"/>
<path d="M14.5001 6.25H15.3531C15.5793 6.25 15.7962 6.16769 15.9562 6.02118C16.1161 5.87466 16.206 5.67595 16.206 5.46875C16.206 5.26155 16.1161 5.06284 15.9562 4.91632C15.7962 4.76981 15.5793 4.6875 15.3531 4.6875H14.5001C14.2739 4.6875 14.0569 4.76981 13.897 4.91632C13.737 5.06284 13.6472 5.26155 13.6472 5.46875C13.6472 5.67595 13.737 5.87466 13.897 6.02118C14.0569 6.16769 14.2739 6.25 14.5001 6.25Z" fill="#3EA9D2"/>
<path d="M48.618 23.4375H24.7355C24.5093 23.4375 24.2923 23.5198 24.1324 23.6663C23.9724 23.8128 23.8825 24.0115 23.8825 24.2188V30.4688C23.8825 30.676 23.9724 30.8747 24.1324 31.0212C24.2923 31.1677 24.5093 31.25 24.7355 31.25H48.618C48.8442 31.25 49.0612 31.1677 49.2211 31.0212C49.3811 30.8747 49.471 30.676 49.471 30.4688V24.2188C49.471 24.0115 49.3811 23.8128 49.2211 23.6663C49.0612 23.5198 48.8442 23.4375 48.618 23.4375ZM47.7651 29.6875H25.5884V25H47.7651V29.6875Z" fill="#3EA9D2"/>
<path d="M48.618 32.8125H24.7355C24.5093 32.8125 24.2923 32.8948 24.1324 33.0413C23.9724 33.1878 23.8825 33.3865 23.8825 33.5938V39.8438C23.8825 40.051 23.9724 40.2497 24.1324 40.3962C24.2923 40.5427 24.5093 40.625 24.7355 40.625H48.618C48.8442 40.625 49.0612 40.5427 49.2211 40.3962C49.3811 40.2497 49.471 40.051 49.471 39.8438V33.5938C49.471 33.3865 49.3811 33.1878 49.2211 33.0413C49.0612 32.8948 48.8442 32.8125 48.618 32.8125ZM47.7651 39.0625H25.5884V34.375H47.7651V39.0625Z" fill="#3EA9D2"/>
<path d="M17.9119 29.6875H9.38241C8.25175 29.6887 7.16778 30.1007 6.36828 30.833C5.56878 31.5653 5.11903 32.5581 5.11768 33.5938V39.8438C5.11768 40.051 5.20754 40.2497 5.3675 40.3962C5.52746 40.5427 5.74441 40.625 5.97062 40.625H21.3237C21.5499 40.625 21.7668 40.5427 21.9268 40.3962C22.0868 40.2497 22.1766 40.051 22.1766 39.8438V33.5938C22.1753 32.5581 21.7255 31.5653 20.926 30.833C20.1265 30.1007 19.0425 29.6887 17.9119 29.6875ZM20.4707 39.0625H6.82357V33.5938C6.82357 32.9721 7.09316 32.376 7.57304 31.9365C8.05291 31.4969 8.70376 31.25 9.38241 31.25H17.9119C18.5905 31.25 19.2414 31.4969 19.7213 31.9365C20.2011 32.376 20.4707 32.9721 20.4707 33.5938V39.0625Z" fill="#3EA9D2"/>
<path d="M13.6471 28.9063C14.4906 28.9063 15.3152 28.6772 16.0165 28.2479C16.7178 27.8187 17.2645 27.2086 17.5872 26.4949C17.91 25.7811 17.9945 24.9957 17.8299 24.2379C17.6654 23.4802 17.2592 22.7842 16.6628 22.2379C16.0663 21.6916 15.3064 21.3195 14.4792 21.1688C13.6519 21.0181 12.7944 21.0954 12.0151 21.3911C11.2358 21.6868 10.5698 22.1874 10.1012 22.8298C9.63254 23.4722 9.38242 24.2274 9.38242 25C9.38377 26.0356 9.83352 27.0285 10.633 27.7608C11.4325 28.4931 12.5165 28.905 13.6471 28.9063ZM13.6471 22.6563C14.1532 22.6563 14.648 22.7937 15.0688 23.0512C15.4896 23.3088 15.8175 23.6748 16.0112 24.1031C16.2049 24.5314 16.2556 25.0026 16.1568 25.4573C16.0581 25.9119 15.8144 26.3295 15.4565 26.6573C15.0987 26.9851 14.6427 27.2083 14.1464 27.2987C13.65 27.3892 13.1355 27.3427 12.6679 27.1654C12.2004 26.988 11.8007 26.6876 11.5196 26.3021C11.2384 25.9167 11.0883 25.4636 11.0883 25C11.0883 24.3784 11.3579 23.7823 11.8378 23.3427C12.3176 22.9032 12.9685 22.6563 13.6471 22.6563Z" fill="#3EA9D2"/>
<path d="M24.7355 19.5312H28.1473C28.3735 19.5312 28.5904 19.4489 28.7504 19.3024C28.9104 19.1559 29.0002 18.9572 29.0002 18.75C29.0002 18.5428 28.9104 18.3441 28.7504 18.1976C28.5904 18.0511 28.3735 17.9688 28.1473 17.9688H25.5884V14.0625C25.5884 13.8553 25.4986 13.6566 25.3386 13.5101C25.1787 13.3636 24.9617 13.2812 24.7355 13.2812C24.5093 13.2812 24.2923 13.3636 24.1324 13.5101C23.9724 13.6566 23.8825 13.8553 23.8825 14.0625V18.75C23.8825 18.9572 23.9724 19.1559 24.1324 19.3024C24.2923 19.4489 24.5093 19.5312 24.7355 19.5312Z" fill="#3EA9D2"/>
<path d="M31.5591 19.5313C32.0651 19.5313 32.5599 19.3938 32.9807 19.1363C33.4015 18.8787 33.7294 18.5127 33.9231 18.0844C34.1168 17.6562 34.1675 17.1849 34.0687 16.7303C33.97 16.2756 33.7263 15.858 33.3684 15.5302C33.0106 15.2024 32.5546 14.9792 32.0583 14.8888C31.5619 14.7984 31.0474 14.8448 30.5798 15.0222C30.1123 15.1996 29.7126 15.5 29.4315 15.8854C29.1503 16.2708 29.0002 16.724 29.0002 17.1875C29.0002 17.8091 29.2698 18.4052 29.7497 18.8448C30.2296 19.2843 30.8804 19.5313 31.5591 19.5313ZM31.5591 16.4063C31.7278 16.4063 31.8927 16.4521 32.0329 16.5379C32.1732 16.6238 32.2825 16.7458 32.3471 16.8885C32.4116 17.0313 32.4285 17.1884 32.3956 17.3399C32.3627 17.4915 32.2815 17.6307 32.1622 17.7399C32.0429 17.8492 31.8909 17.9236 31.7255 17.9537C31.56 17.9839 31.3885 17.9684 31.2326 17.9093C31.0768 17.8502 30.9436 17.75 30.8499 17.6215C30.7561 17.4931 30.7061 17.342 30.7061 17.1875C30.7061 16.9803 30.796 16.7816 30.9559 16.6351C31.1159 16.4886 31.3328 16.4063 31.5591 16.4063Z" fill="#3EA9D2"/>
<path d="M37.5297 19.5312C37.8209 19.5286 38.1095 19.48 38.3826 19.3874V19.5312C38.3826 19.7384 38.2928 19.9371 38.1328 20.0836C37.9729 20.2301 37.7559 20.3124 37.5297 20.3124H36.6767C36.4505 20.3124 36.2336 20.3948 36.0736 20.5413C35.9137 20.6878 35.8238 20.8865 35.8238 21.0937C35.8238 21.3009 35.9137 21.4996 36.0736 21.6461C36.2336 21.7926 36.4505 21.8749 36.6767 21.8749H37.5297C38.2083 21.8749 38.8592 21.628 39.3391 21.1885C39.8189 20.7489 40.0885 20.1528 40.0885 19.5312V15.6249C40.0883 15.4699 40.0378 15.3185 39.9434 15.1899C39.849 15.0613 39.7149 14.9613 39.5582 14.9027C39.4016 14.844 39.2294 14.8294 39.0637 14.8606C38.8979 14.8919 38.7461 14.9676 38.6274 15.0781C38.2806 14.9242 37.9003 14.8441 37.5149 14.8438C37.1295 14.8434 36.749 14.9228 36.4018 15.0759C36.0545 15.2291 35.7496 15.4522 35.5097 15.7284C35.2698 16.0047 35.1011 16.327 35.0162 16.6713C34.9313 17.0156 34.9324 17.3731 35.0195 17.7169C35.1065 18.0608 35.2773 18.3822 35.5189 18.6572C35.7606 18.9322 36.067 19.1536 36.4151 19.3049C36.7633 19.4563 37.1443 19.5336 37.5297 19.5312ZM37.5297 16.4062C37.6984 16.4062 37.8633 16.452 38.0036 16.5379C38.1438 16.6237 38.2532 16.7457 38.3177 16.8885C38.3823 17.0312 38.3992 17.1883 38.3663 17.3399C38.3333 17.4914 38.2521 17.6306 38.1328 17.7399C38.0135 17.8491 37.8616 17.9235 37.6961 17.9537C37.5306 17.9838 37.3591 17.9684 37.2033 17.9092C37.0474 17.8501 36.9142 17.75 36.8205 17.6215C36.7268 17.493 36.6767 17.342 36.6767 17.1874C36.6767 16.9802 36.7666 16.7815 36.9266 16.635C37.0865 16.4885 37.3035 16.4062 37.5297 16.4062Z" fill="#3EA9D2"/>
<path d="M41.7944 19.5312C42.0206 19.5312 42.2376 19.4489 42.3975 19.3024C42.5575 19.1559 42.6474 18.9572 42.6474 18.75V15.625C42.6474 15.4178 42.5575 15.2191 42.3975 15.0726C42.2376 14.9261 42.0206 14.8438 41.7944 14.8438C41.5682 14.8438 41.3512 14.9261 41.1913 15.0726C41.0313 15.2191 40.9415 15.4178 40.9415 15.625V18.75C40.9415 18.9572 41.0313 19.1559 41.1913 19.3024C41.3512 19.4489 41.5682 19.5312 41.7944 19.5312Z" fill="#3EA9D2"/>
<path d="M44.3533 19.5312C44.5795 19.5312 44.7964 19.4489 44.9564 19.3024C45.1163 19.1559 45.2062 18.9572 45.2062 18.75V16.7969C45.2062 16.6933 45.2511 16.5939 45.3311 16.5207C45.4111 16.4474 45.5196 16.4062 45.6327 16.4062C45.7458 16.4062 45.8543 16.4474 45.9342 16.5207C46.0142 16.5939 46.0592 16.6933 46.0592 16.7969V18.75C46.0592 18.9572 46.149 19.1559 46.309 19.3024C46.4689 19.4489 46.6859 19.5312 46.9121 19.5312C47.1383 19.5312 47.3553 19.4489 47.5152 19.3024C47.6752 19.1559 47.765 18.9572 47.765 18.75V16.7969C47.7657 16.4762 47.68 16.1603 47.5155 15.8773C47.351 15.5942 47.1128 15.3527 46.822 15.1741C46.5312 14.9956 46.1968 14.8855 45.8485 14.8536C45.5001 14.8217 45.1485 14.8691 44.8249 14.9914C44.688 14.899 44.5233 14.8475 44.3533 14.8438C44.127 14.8438 43.9101 14.9261 43.7501 15.0726C43.5902 15.2191 43.5003 15.4178 43.5003 15.625V18.75C43.5003 18.9572 43.5902 19.1559 43.7501 19.3024C43.9101 19.4489 44.127 19.5312 44.3533 19.5312Z" fill="#3EA9D2"/>
<path d="M41.7944 14.0625C42.2655 14.0625 42.6474 13.7127 42.6474 13.2812C42.6474 12.8498 42.2655 12.5 41.7944 12.5C41.3233 12.5 40.9415 12.8498 40.9415 13.2812C40.9415 13.7127 41.3233 14.0625 41.7944 14.0625Z" fill="#3EA9D2"/>
</svg>
