<svg width="55" height="50" viewBox="0 0 55 50" fill="none" xmlns="http://www.w3.org/2000/svg">
<g clip-path="url(#clip0)">
<path d="M52.9893 0H1.59928C0.716049 0 0 0.655859 0 1.46484V48.5352C0 49.3441 0.716049 50 1.59928 50H52.9893C53.8726 50 54.5886 49.3441 54.5886 48.5352V1.46484C54.5886 0.655859 53.8726 0 52.9893 0ZM33.0159 9.84268C33.3132 9.57012 33.7258 9.41387 34.146 9.41387C34.5672 9.41387 34.9798 9.57012 35.2772 9.84268C35.5747 10.1161 35.7463 10.4931 35.7463 10.8787C35.7463 11.2645 35.5747 11.6415 35.2772 11.9148C34.9798 12.1873 34.5672 12.3436 34.146 12.3436C33.726 12.3436 33.3132 12.1873 33.0159 11.9148C32.7172 11.6424 32.5468 11.2645 32.5468 10.8787C32.5468 10.4931 32.7172 10.1161 33.0159 9.84268ZM24.45 9.84268C24.7475 9.57012 25.1601 9.41387 25.5813 9.41387C26.0024 9.41387 26.414 9.57012 26.7125 9.84268C27.01 10.1161 27.1805 10.4931 27.1805 10.8787C27.1805 11.2645 27.01 11.6424 26.7125 11.9148C26.4138 12.1873 26.0024 12.3436 25.5813 12.3436C25.1601 12.3436 24.7475 12.1873 24.45 11.9148C24.1526 11.6424 23.982 11.2645 23.982 10.8787C23.9821 10.4931 24.1526 10.1161 24.45 9.84268ZM17.0163 18.8281H37.5723C38.4555 18.8281 39.1716 19.484 39.1716 20.293C39.1716 21.102 38.4555 21.7578 37.5723 21.7578H17.0163C16.1331 21.7578 15.417 21.102 15.417 20.293C15.417 19.484 16.133 18.8281 17.0163 18.8281ZM42.7113 40.5859H11.8773C10.9941 40.5859 10.278 39.9301 10.278 39.1211C10.278 38.3121 10.9941 37.6562 11.8773 37.6562H42.7113C43.5945 37.6562 44.3106 38.3121 44.3106 39.1211C44.3106 39.9301 43.5945 40.5859 42.7113 40.5859ZM42.7113 31.1718H11.8773C10.9941 31.1718 10.278 30.5159 10.278 29.7069C10.278 28.8979 10.9941 28.2421 11.8773 28.2421H42.7113C43.5945 28.2421 44.3106 28.8979 44.3106 29.7069C44.3106 30.5159 43.5945 31.1718 42.7113 31.1718ZM43.8418 11.9149C43.5444 12.1874 43.1318 12.3437 42.7116 12.3437C42.2905 12.3437 41.8779 12.1874 41.5804 11.9149C41.283 11.6425 41.1124 11.2646 41.1124 10.8788C41.1124 10.4932 41.283 10.1161 41.5804 9.84277C41.8779 9.57022 42.2905 9.41397 42.7116 9.41397C43.1317 9.41397 43.5444 9.57022 43.8418 9.84277C44.1404 10.1162 44.3109 10.4932 44.3109 10.8788C44.3109 11.2646 44.1404 11.6425 43.8418 11.9149Z" fill="#3EA9D2"/>
</g>
<defs>
<clipPath id="clip0">
<rect width="54.5886" height="50" fill="white"/>
</clipPath>
</defs>
</svg>
